<svg xmlns="http://www.w3.org/2000/svg" version="1.1" xmlns:xlink="http://www.w3.org/1999/xlink" width="2000" height="408" viewBox="0 0 2000 408"><svg xml:space="preserve" width="2000" height="408" data-version="2" data-id="lg_Ky5qMEYUFXY6f5YYwc" viewBox="0 0 486 99" x="0" y="0">
    <path fill="#F5F5F2" d="M121.168 73.43V30.21h22.93q3.59 0 6.3 1.29t4.26 3.68q1.54 2.4 1.54 5.61 0 2.46-.91 4.47-.92 2.02-2.52 3.41-1.61 1.38-3.63 2.08V51q2.33.5 4.19 1.86 1.86 1.35 2.96 3.52 1.11 2.18 1.11 5.2 0 4.1-1.8 6.74-1.79 2.65-4.76 3.88-2.96 1.23-6.74 1.23Zm7.06-6.05h15.31q2.89 0 4.75-1.55 1.86-1.54 1.86-5 0-2.08-.79-3.56-.78-1.48-2.36-2.27-1.57-.79-3.97-.79h-14.8Zm0-19.09h14.24q2.01 0 3.46-.76 1.45-.75 2.24-2.14.78-1.39.78-3.09 0-3.08-1.66-4.56-1.67-1.48-4.38-1.48h-14.68Z"></path>
    <rect width="36.23" height="43.22" x="-18.115" y="-21.61" fill="none" rx="0" ry="0" transform="matrix(1 0 0 1 139.783 52.32)"></rect>
    <path fill="#F5F5F2" d="M174.908 74.18q-4.79 0-7.75-2.55t-2.96-8.73V40.29h6.55V61.9q0 1.89.48 3.15.47 1.26 1.35 2.01.88.76 2.08 1.07 1.2.32 2.64.32 2.27 0 4.13-1.1 1.86-1.11 2.99-3.09 1.14-1.99 1.14-4.57v-19.4h6.55v33.14h-5.36l-.56-4.73h-.44q-1.2 1.83-2.84 3.02-1.64 1.2-3.62 1.83-1.99.63-4.38.63"></path>
    <rect width="27.91" height="33.89" x="-13.955" y="-16.945" fill="none" rx="0" ry="0" transform="matrix(1 0 0 1 178.653 57.735)"></rect>
    <path fill="#F5F5F2" d="M200.548 73.43V40.29h5.42l.57 5.35h.37q.57-1.57 1.49-2.96.91-1.38 2.39-2.27 1.48-.88 3.62-.88 1.01 0 1.8.19.78.19 1.23.32v6.17h-2.21q-2.02 0-3.56.63t-2.58 1.86q-1.04 1.23-1.51 2.99-.48 1.76-.48 3.97v17.77Z"></path>
    <rect width="16.89" height="33.9" x="-8.445" y="-16.95" fill="none" rx="0" ry="0" transform="matrix(1 0 0 1 209.493 56.98)"></rect>
    <path fill="#F5F5F2" d="M222.348 73.43V40.29h5.42l.56 5.35h.38q.57-1.57 1.48-2.96.92-1.38 2.4-2.27 1.48-.88 3.62-.88 1.01 0 1.8.19.78.19 1.22.32v6.17h-2.2q-2.02 0-3.56.63t-2.58 1.86q-1.04 1.23-1.52 2.99-.47 1.76-.47 3.97v17.77Z"></path>
    <rect width="16.88" height="33.9" x="-8.44" y="-16.95" fill="none" rx="0" ry="0" transform="matrix(1 0 0 1 231.288 56.98)"></rect>
    <path fill="#F5F5F2" d="M257.628 74.18q-5.17 0-8.73-1.86-3.56-1.86-5.35-5.7-1.8-3.84-1.8-9.76 0-5.99 1.8-9.8 1.79-3.81 5.35-5.67 3.56-1.86 8.73-1.86 5.29 0 8.82 1.86 3.53 1.86 5.32 5.67 1.8 3.81 1.8 9.8 0 5.92-1.8 9.76-1.79 3.84-5.32 5.7-3.53 1.86-8.82 1.86m0-5.42q3.15 0 5.17-1.22 2.01-1.23 2.99-3.75.97-2.52.97-6.37v-1.13q0-3.84-.97-6.36-.98-2.52-2.99-3.75-2.02-1.23-5.17-1.23-3.09 0-5.1 1.23-2.02 1.23-3 3.75-.97 2.52-.97 6.36v1.13q0 3.85.97 6.37.98 2.52 3 3.75 2.01 1.22 5.1 1.22"></path>
    <rect width="31.82" height="34.65" x="-15.91" y="-17.325" fill="none" rx="0" ry="0" transform="matrix(1 0 0 1 258.158 57.355)"></rect>
    <path fill="#F5F5F2" d="m286.288 73.43-9.95-33.14h6.8l4.86 18.14q.37 1.32.66 2.77.28 1.45.53 2.59.25 1.13.38 1.57h.38l.57-2.58q.31-1.45.56-2.68.25-1.23.38-1.86l4.41-17.95h7.06l4.53 18.02q.25 1 .54 2.3.28 1.29.57 2.55.28 1.26.4 2.2h.38q.19-.88.48-2.11.28-1.23.59-2.49.32-1.26.57-2.33l4.79-18.14h6.24l-9.9 33.14h-6.8l-4.03-16.51q-.25-1.2-.63-2.77-.38-1.58-.69-3.15-.32-1.58-.51-2.77h-.38q-.12.69-.34 2.01-.22 1.32-.6 3.03-.38 1.7-.88 3.65l-4.16 16.51Z"></path>
    <rect width="45.68" height="33.14" x="-22.84" y="-16.57" fill="none" rx="0" ry="0" transform="matrix(1 0 0 1 299.678 57.36)"></rect>
    <path fill="#F5F5F2" d="M340.538 73.43V30.21h22.93q3.59 0 6.3 1.29t4.25 3.68q1.55 2.4 1.55 5.61 0 2.46-.92 4.47-.91 2.02-2.52 3.41-1.6 1.38-3.62 2.08V51q2.33.5 4.19 1.86 1.86 1.35 2.96 3.52 1.1 2.18 1.1 5.2 0 4.1-1.79 6.74-1.8 2.65-4.76 3.88t-6.74 1.23Zm7.05-6.05h15.31q2.9 0 4.76-1.55 1.86-1.54 1.86-5 0-2.08-.79-3.56t-2.36-2.27q-1.58-.79-3.97-.79h-14.81Zm0-19.09h14.24q2.02 0 3.47-.76 1.45-.75 2.23-2.14.79-1.39.79-3.09 0-3.08-1.67-4.56-1.67-1.48-4.38-1.48h-14.68Z"></path>
    <rect width="36.22" height="43.22" x="-18.11" y="-21.61" fill="none" rx="0" ry="0" transform="matrix(1 0 0 1 359.148 52.32)"></rect>
    <path fill="#F5F5F2" d="M392.258 74.18q-1.57 0-3.4-.38-1.83-.37-3.43-1.38-1.61-1.01-2.62-2.81-1.01-1.79-1.01-4.69 0-3.4 1.58-5.61 1.57-2.2 4.41-3.46 2.83-1.26 6.77-1.77 3.94-.5 8.6-.5V50.3q0-1.63-.54-2.89-.53-1.26-1.95-1.96-1.42-.69-4.06-.69-2.65 0-4.13.66t-2.08 1.64q-.6.98-.6 2.11v.95h-6.3q-.06-.32-.06-.63v-.76q0-2.96 1.67-5.01t4.69-3.12q3.03-1.07 7-1.07 4.28 0 7.15 1.23 2.86 1.23 4.31 3.5 1.45 2.26 1.45 5.48v16.82q0 1.2.6 1.7t1.42.5h2.27v4.41q-.76.32-1.89.63-1.14.32-2.65.32-1.7 0-2.87-.6-1.16-.6-1.89-1.7-.72-1.1-.97-2.49h-.38q-1.14 1.45-2.74 2.55-1.61 1.1-3.69 1.7-2.08.6-4.66.6m1.83-5.42q1.95 0 3.62-.59 1.67-.6 2.87-1.71 1.19-1.1 1.89-2.64.69-1.55.69-3.37v-2.21q-4.35 0-7.62.51-3.28.5-5.11 1.86-1.82 1.35-1.82 3.74 0 1.45.63 2.43.63.98 1.89 1.48 1.26.5 2.96.5"></path>
    <rect width="32.2" height="34.65" x="-16.1" y="-17.325" fill="none" rx="0" ry="0" transform="matrix(1 0 0 1 398.398 57.355)"></rect>
    <path fill="#F5F5F2" d="M430.748 74.18q-3.46 0-6.11-.75-2.64-.76-4.41-2.08-1.76-1.33-2.67-3.18-.92-1.86-.92-4.13 0-.32.03-.57.03-.25.03-.44h6.49v.69q0 1.96 1.07 3.12 1.08 1.17 2.87 1.64 1.8.47 3.94.47 1.89 0 3.5-.47 1.6-.47 2.64-1.42 1.04-.94 1.04-2.39 0-1.89-1.32-2.9-1.33-1.01-3.47-1.61-2.14-.59-4.47-1.29-2.08-.56-4.13-1.23-2.04-.66-3.68-1.73-1.64-1.07-2.65-2.71t-1.01-4.09q0-2.33 1.01-4.1 1.01-1.76 2.81-2.96 1.79-1.2 4.28-1.83 2.49-.63 5.45-.63 3.09 0 5.48.67 2.39.66 4.06 1.85 1.67 1.2 2.55 2.87.89 1.67.89 3.56 0 .38-.03.79-.04.41-.04.53h-6.42v-.56q0-1.26-.7-2.27-.69-1.01-2.17-1.64-1.48-.63-3.94-.63-1.63 0-2.89.28-1.26.29-2.08.79-.82.51-1.23 1.2-.41.69-.41 1.57 0 1.45 1.04 2.24 1.04.79 2.74 1.32 1.7.54 3.65 1.17 2.27.63 4.6 1.29 2.33.66 4.32 1.67 1.98 1.01 3.21 2.77 1.23 1.77 1.23 4.73 0 2.71-1.07 4.72-1.07 2.02-2.99 3.25-1.93 1.22-4.51 1.82-2.58.6-5.61.6"></path>
    <rect width="28.29" height="34.59" x="-14.145" y="-17.295" fill="none" rx="0" ry="0" transform="matrix(1 0 0 1 431.283 57.385)"></rect>
    <path fill="#F5F5F2" d="M465.278 74.18q-5.11 0-8.54-1.86-3.43-1.86-5.2-5.7-1.76-3.84-1.76-9.76 0-5.99 1.76-9.8 1.77-3.81 5.23-5.67 3.47-1.86 8.63-1.86 4.73 0 7.91 1.8 3.18 1.79 4.82 5.45 1.64 3.65 1.64 9.19v2.52h-23.25q.13 3.53 1.07 5.9.95 2.36 2.87 3.46 1.92 1.1 4.88 1.1 1.83 0 3.28-.47 1.45-.47 2.45-1.39 1.01-.91 1.58-2.2.57-1.29.57-2.93h6.42q0 2.96-1.01 5.23-1 2.27-2.93 3.81-1.92 1.54-4.56 2.36-2.65.82-5.86.82m-8.63-20.47h16.25q0-2.46-.53-4.13-.54-1.67-1.55-2.74-1.01-1.07-2.39-1.54-1.39-.48-3.15-.48-2.65 0-4.51.95-1.86.94-2.86 2.93-1.01 1.98-1.26 5.01"></path>
    <rect width="29.99" height="34.65" x="-14.995" y="-17.325" fill="none" rx="0" ry="0" transform="matrix(1 0 0 1 465.273 57.355)"></rect>
    <g transform="matrix(1.0255 0 0 1.0255 46.56 53.705)">
        <linearGradient id="a" x1="0" x2="1" y1="0" y2="0" gradientUnits="objectBoundingBox">
            <stop offset="0%" stop-color="#ffa62e"></stop>
            <stop offset="100%" stop-color="#f71b3d"></stop>
        </linearGradient>
        <path fill="url(#a)" d="M72.9 86.4c0 1-.8 1.7-1.7 1.7H12.5c-1 0-1.7-.8-1.7-1.7V34.3h35.3l22.5-22.5h-56c-5.5 0-10 4.5-10 10v64.5c0 5.5 4.5 10 10 10h58.6c5.5 0 10-4.5 10-10V40.7L72.9 49z" transform="translate(-41.9 -54.05)"></path>
    </g>
    <g transform="matrix(1.0255 0 0 1.0255 70.994 34.54)">
        <linearGradient id="b" x1="0" x2="1" y1="0" y2="0" gradientUnits="objectBoundingBox">
            <stop offset="0%" stop-color="#ffa62e"></stop>
            <stop offset="100%" stop-color="#f71b3d"></stop>
        </linearGradient>
        <path fill="url(#b)" d="M34 65c-.2 1.2.9 2.3 2.2 2.1L48 65.6c1.9-.2 3.6-1.1 4.9-2.4l.6-.6-14.9-15-.6.6c-1.3 1.3-2.2 3.1-2.4 4.9zm62.2-51.7L87.8 5c-.9-.9-2.1-1.4-3.3-1.4-1.2 0-2.4.4-3.2 1.4L41.5 44.8l14.9 14.9 39.8-39.8c1.7-1.8 1.7-4.8 0-6.6" transform="translate(-65.726 -35.362)"></path>
    </g>
</svg></svg>