<svg width="520" height="660" viewBox="0 0 520 660" fill="none" xmlns="http://www.w3.org/2000/svg">
  <defs>
    <filter id="phoneShadow" x="-50%" y="-50%" width="200%" height="200%" color-interpolation-filters="sRGB">
      <feDropShadow dx="0" dy="26" stdDeviation="28" flood-color="#000000" flood-opacity="0.12" />
    </filter>
    <filter id="cardShadow" x="-30%" y="-30%" width="160%" height="160%" color-interpolation-filters="sRGB">
      <feDropShadow dx="0" dy="10" stdDeviation="8" flood-color="#000000" flood-opacity="0.12" />
    </filter>
    <filter id="floorShadow" x="-80%" y="-80%" width="260%" height="260%" color-interpolation-filters="sRGB">
      <feGaussianBlur stdDeviation="28" />
    </filter>
  </defs>

  <ellipse cx="260" cy="585" rx="150" ry="38" fill="#000000" opacity="0.08" filter="url(#floorShadow)" />

  <rect x="120" y="40" width="280" height="540" rx="46" fill="#0b0b0b" filter="url(#phoneShadow)" />
  <rect x="128" y="48" width="264" height="524" rx="40" fill="#ffffff" />
  <rect x="142" y="88" width="236" height="452" rx="30" fill="#f3e8dc" stroke="#ede4d7" stroke-width="2" />
  <rect x="208" y="52" width="104" height="20" rx="10" fill="#0b0b0b" />
  <circle cx="260" cy="62" r="4" fill="#1f1f1f" />

  <g transform="translate(158 150)">
    <rect width="204" height="68" rx="16" fill="#ffffff" stroke="#efe9df" filter="url(#cardShadow)" />
    <rect x="7" y="17" width="34" height="34" rx="11" fill="#f7e7e1" stroke="#f2d4cb" stroke-width="1" />
    <g transform="translate(24 28)" stroke="#c84a3f" stroke-width="2.1" stroke-linecap="round" stroke-linejoin="round" fill="none">
      <path d="M-8 -6 H6 C9 -6 12 -3 12 0 V8 C12 11 9 14 6 14 H-2 L-8 20 V14 H-6 C-9 14 -12 11 -12 8 V0 C-12 -3 -9 -6 -6 -6 Z" />
      <line x1="-4" y1="2" x2="2" y2="2" />
      <line x1="-4" y1="8" x2="6" y2="8" />
    </g>
    <text x="52" y="29" font-family="Archivo, Arial, sans-serif" font-size="13" fill="#1a1a1a" font-weight="600">Leads &amp; Messages</text>
    <text x="52" y="46" font-family="Archivo, Arial, sans-serif" font-size="11" fill="#6b6b6b">Auto-response</text>
  </g>

  <g transform="translate(158 236)">
    <rect width="204" height="68" rx="16" fill="#ffffff" stroke="#efe9df" filter="url(#cardShadow)" />
    <rect x="7" y="17" width="34" height="34" rx="11" fill="#f7e7e1" stroke="#f2d4cb" stroke-width="1" />
    <g transform="translate(24 34)" stroke="#c84a3f" stroke-width="2.1" stroke-linecap="round" stroke-linejoin="round" fill="none">
      <rect x="-9" y="-8" width="18" height="18" rx="4" />
      <line x1="-9" y1="-2" x2="9" y2="-2" />
      <line x1="-3" y1="4" x2="0" y2="4" />
      <line x1="3" y1="4" x2="6" y2="4" />
    </g>
    <text x="52" y="29" font-family="Archivo, Arial, sans-serif" font-size="13" fill="#1a1a1a" font-weight="600">Scheduling</text>
    <text x="52" y="46" font-family="Archivo, Arial, sans-serif" font-size="11" fill="#6b6b6b">Protected buffers</text>
  </g>

  <g transform="translate(158 322)">
    <rect width="204" height="68" rx="16" fill="#ffffff" stroke="#efe9df" filter="url(#cardShadow)" />
    <rect x="7" y="17" width="34" height="34" rx="11" fill="#f7e7e1" stroke="#f2d4cb" stroke-width="1" />
    <g transform="translate(24 34)" stroke="#c84a3f" stroke-width="2.1" stroke-linecap="round" stroke-linejoin="round" fill="none">
      <rect x="-11" y="-7" width="22" height="14" rx="3" />
      <line x1="-11" y1="-1" x2="11" y2="-1" />
      <circle cx="-4" cy="4" r="1.1" fill="#c84a3f" stroke="none" />
      <circle cx="0" cy="4" r="1.1" fill="#c84a3f" stroke="none" />
      <circle cx="4" cy="4" r="1.1" fill="#c84a3f" stroke="none" />
    </g>
    <text x="52" y="29" font-family="Archivo, Arial, sans-serif" font-size="13" fill="#1a1a1a" font-weight="600">Payments</text>
    <text x="52" y="46" font-family="Archivo, Arial, sans-serif" font-size="11" fill="#6b6b6b">Auto-invoicing</text>
  </g>

  <g transform="translate(158 408)">
    <rect width="204" height="68" rx="16" fill="#ffffff" stroke="#efe9df" filter="url(#cardShadow)" />
    <rect x="7" y="17" width="34" height="34" rx="11" fill="#f7e7e1" stroke="#f2d4cb" stroke-width="1" />
    <g transform="translate(24 34)" stroke="#c84a3f" stroke-width="2.1" stroke-linecap="round" stroke-linejoin="round" fill="none">
      <path d="M0 -9 L3 -3 L9 -3 L4 1 L6 8 L0 4 L-6 8 L-4 1 L-9 -3 L-3 -3 Z" />
    </g>
    <text x="52" y="29" font-family="Archivo, Arial, sans-serif" font-size="13" fill="#1a1a1a" font-weight="600">Reviews</text>
    <text x="52" y="46" font-family="Archivo, Arial, sans-serif" font-size="11" fill="#6b6b6b">Smart requests</text>
  </g>
</svg>
